<svg width="32" height="32" viewBox="0 0 32 32" fill="none" xmlns="http://www.w3.org/2000/svg">
<g clip-path="url(#clip0_69306_2201)">
<path d="M16 0C7.16375 0 0 7.16375 0 16C0 24.8363 7.16375 32 16 32C24.8363 32 32 24.8363 32 16C32 7.16375 24.8363 0 16 0Z" fill="#FF0000"/>
<path d="M17.0286 6C18.1536 6.003 18.7246 6.009 19.2176 6.023L19.4116 6.03C19.6356 6.038 19.8566 6.048 20.1236 6.06C21.1876 6.11 21.9136 6.278 22.5506 6.525C23.2106 6.779 23.7666 7.123 24.3226 7.678C24.8311 8.1779 25.2245 8.78259 25.4756 9.45C25.7226 10.087 25.8906 10.813 25.9406 11.878C25.9526 12.144 25.9626 12.365 25.9706 12.59L25.9766 12.784C25.9916 13.276 25.9976 13.847 25.9996 14.972L26.0006 15.718V17.028C26.003 17.7574 25.9954 18.4868 25.9776 19.216L25.9716 19.41C25.9636 19.635 25.9536 19.856 25.9416 20.122C25.8916 21.187 25.7216 21.912 25.4756 22.55C25.2253 23.2178 24.8317 23.8226 24.3226 24.322C23.8225 24.8303 23.2179 25.2238 22.5506 25.475C21.9136 25.722 21.1876 25.89 20.1236 25.94C19.8863 25.9512 19.649 25.9612 19.4116 25.97L19.2176 25.976C18.7246 25.99 18.1536 25.997 17.0286 25.999L16.2826 26H14.9736C14.2438 26.0025 13.5141 25.9949 12.7846 25.977L12.5906 25.971C12.3532 25.962 12.1158 25.9517 11.8786 25.94C10.8146 25.89 10.0886 25.722 9.45058 25.475C8.78325 25.2244 8.17879 24.8308 7.67958 24.322C7.17062 23.8223 6.7768 23.2176 6.52558 22.55C6.27858 21.913 6.11058 21.187 6.06058 20.122C6.04944 19.8847 6.03944 19.6474 6.03058 19.41L6.02558 19.216C6.00715 18.4868 5.99881 17.7574 6.00058 17.028V14.972C5.99779 14.2426 6.00512 13.5132 6.02258 12.784L6.02958 12.59C6.03758 12.365 6.04758 12.144 6.05958 11.878C6.10958 10.813 6.27758 10.088 6.52458 9.45C6.77569 8.7819 7.1703 8.17702 7.68058 7.678C8.17967 7.16947 8.78372 6.77599 9.45058 6.525C10.0886 6.278 10.8136 6.11 11.8786 6.06C12.1446 6.048 12.3666 6.038 12.5906 6.03L12.7846 6.024C13.5138 6.00623 14.2432 5.99857 14.9726 6.001L17.0286 6ZM16.0006 11C14.6745 11 13.4027 11.5268 12.465 12.4645C11.5274 13.4021 11.0006 14.6739 11.0006 16C11.0006 17.3261 11.5274 18.5979 12.465 19.5355C13.4027 20.4732 14.6745 21 16.0006 21C17.3267 21 18.5984 20.4732 19.5361 19.5355C20.4738 18.5979 21.0006 17.3261 21.0006 16C21.0006 14.6739 20.4738 13.4021 19.5361 12.4645C18.5984 11.5268 17.3267 11 16.0006 11ZM16.0006 13C16.3945 12.9999 16.7847 13.0775 17.1487 13.2282C17.5127 13.3789 17.8434 13.5998 18.122 13.8783C18.4007 14.1569 18.6217 14.4875 18.7725 14.8515C18.9233 15.2154 19.001 15.6055 19.0011 15.9995C19.0011 16.3935 18.9236 16.7836 18.7729 17.1476C18.6222 17.5116 18.4013 17.8423 18.1228 18.121C17.8442 18.3996 17.5135 18.6206 17.1496 18.7714C16.7856 18.9223 16.3955 18.9999 16.0016 19C15.2059 19 14.4429 18.6839 13.8803 18.1213C13.3176 17.5587 13.0016 16.7956 13.0016 16C13.0016 15.2044 13.3176 14.4413 13.8803 13.8787C14.4429 13.3161 15.2059 13 16.0016 13M21.2516 9.5C20.9201 9.5 20.6021 9.6317 20.3677 9.86612C20.1333 10.1005 20.0016 10.4185 20.0016 10.75C20.0016 11.0815 20.1333 11.3995 20.3677 11.6339C20.6021 11.8683 20.9201 12 21.2516 12C21.5831 12 21.901 11.8683 22.1355 11.6339C22.3699 11.3995 22.5016 11.0815 22.5016 10.75C22.5016 10.4185 22.3699 10.1005 22.1355 9.86612C21.901 9.6317 21.5831 9.5 21.2516 9.5Z" fill="white"/>
</g>
<defs>
<clipPath id="clip0_69306_2201">
<rect width="32" height="32" fill="white"/>
</clipPath>
</defs>
</svg>
