<svg width="84" height="18" viewBox="0 0 84 18" fill="none" xmlns="http://www.w3.org/2000/svg">
<path d="M7.54078 2.93872C7.79024 2.17096 8.87642 2.17096 9.12588 2.93872L10.0172 5.68188C10.1287 6.02524 10.4487 6.2577 10.8097 6.2577H13.6941C14.5013 6.2577 14.837 7.29072 14.1839 7.76522L11.8504 9.46059C11.5583 9.67279 11.4361 10.0489 11.5477 10.3923L12.439 13.1354C12.6885 13.9032 11.8097 14.5416 11.1566 14.0671L8.82315 12.3718C8.53108 12.1596 8.13558 12.1596 7.84351 12.3718L5.51004 14.0671C4.85694 14.5416 3.97821 13.9032 4.22767 13.1354L5.11898 10.3923C5.23054 10.0489 5.10832 9.67279 4.81625 9.46059L2.48278 7.76522C1.82968 7.29072 2.16533 6.2577 2.9726 6.2577H5.85693C6.21795 6.2577 6.53791 6.02524 6.64948 5.68188L7.54078 2.93872Z" fill="#FCB547"/>
<path d="M24.2068 2.93872C24.4563 2.17096 25.5424 2.17096 25.7919 2.93872L26.6832 5.68188C26.7948 6.02524 27.1147 6.2577 27.4757 6.2577H30.3601C31.1674 6.2577 31.503 7.29072 30.8499 7.76522L28.5164 9.46059C28.2244 9.67279 28.1021 10.0489 28.2137 10.3923L29.105 13.1354C29.3545 13.9032 28.4757 14.5416 27.8226 14.0671L25.4892 12.3718C25.1971 12.1596 24.8016 12.1596 24.5095 12.3718L22.1761 14.0671C21.523 14.5416 20.6442 13.9032 20.8937 13.1354L21.785 10.3923C21.8966 10.0489 21.7743 9.67279 21.4823 9.46059L19.1488 7.76522C18.4957 7.29072 18.8313 6.2577 19.6386 6.2577H22.5229C22.884 6.2577 23.2039 6.02524 23.3155 5.68188L24.2068 2.93872Z" fill="#FCB547"/>
<path d="M40.8748 2.93872C41.1242 2.17096 42.2104 2.17096 42.4599 2.93872L43.3512 5.68188C43.4627 6.02524 43.7827 6.2577 44.1437 6.2577H47.028C47.8353 6.2577 48.171 7.29072 47.5179 7.76522L45.1844 9.46059C44.8923 9.67279 44.7701 10.0489 44.8817 10.3923L45.773 13.1354C46.0224 13.9032 45.1437 14.5416 44.4906 14.0671L42.1571 12.3718C41.8651 12.1596 41.4696 12.1596 41.1775 12.3718L38.844 14.0671C38.1909 14.5416 37.3122 13.9032 37.5617 13.1354L38.453 10.3923C38.5645 10.0489 38.4423 9.67279 38.1502 9.46059L35.8168 7.76522C35.1637 7.29072 35.4993 6.2577 36.3066 6.2577H39.1909C39.5519 6.2577 39.8719 6.02524 39.9835 5.68188L40.8748 2.93872Z" fill="#FCB547"/>
<path d="M57.5408 2.93872C57.7902 2.17096 58.8764 2.17096 59.1259 2.93872L60.0172 5.68188C60.1287 6.02524 60.4487 6.2577 60.8097 6.2577H63.6941C64.5013 6.2577 64.837 7.29072 64.1839 7.76522L61.8504 9.46059C61.5583 9.67279 61.4361 10.0489 61.5477 10.3923L62.439 13.1354C62.6885 13.9032 61.8097 14.5416 61.1566 14.0671L58.8232 12.3718C58.5311 12.1596 58.1356 12.1596 57.8435 12.3718L55.51 14.0671C54.8569 14.5416 53.9782 13.9032 54.2277 13.1354L55.119 10.3923C55.2305 10.0489 55.1083 9.67279 54.8163 9.46059L52.4828 7.76522C51.8297 7.29072 52.1653 6.2577 52.9726 6.2577H55.8569C56.218 6.2577 56.5379 6.02524 56.6495 5.68188L57.5408 2.93872Z" fill="#FCB547"/>
<path d="M74.2068 2.93872C74.4563 2.17096 75.5424 2.17096 75.7919 2.93872L76.6832 5.68188C76.7948 6.02524 77.1147 6.2577 77.4757 6.2577H80.3601C81.1674 6.2577 81.503 7.29072 80.8499 7.76522L78.5164 9.46059C78.2244 9.67279 78.1021 10.0489 78.2137 10.3923L79.105 13.1354C79.3545 13.9032 78.4757 14.5416 77.8226 14.0671L75.4892 12.3718C75.1971 12.1596 74.8016 12.1596 74.5095 12.3718L72.1761 14.0671C71.523 14.5416 70.6442 13.9032 70.8937 13.1354L71.785 10.3923C71.8966 10.0489 71.7743 9.67279 71.4823 9.46059L69.1488 7.76522C68.4957 7.29072 68.8313 6.2577 69.6386 6.2577H72.5229C72.884 6.2577 73.2039 6.02524 73.3155 5.68188L74.2068 2.93872Z" fill="#FCB547"/>
</svg>
